<svg class="my-2" width="15" height="15" fill="none" xmlns="http://www.w3.org/2000/svg"><path d="M3.421 11.616c.037-.059-.015-.214.135-.096.112.103.212.208.307.317l.279.335c.183.222.378.446.602.606l.044-.101.515.559.571.607.335.274 1.06-2.544c-.037-.013-.065-.039-.032-.146.043-.102.086-.218.142-.323.058-.104.12-.213.186-.325l.209-.351.227-.33.114-.21c.013-.062-.014-.09-.03-.11.04-.06.05-.066.07-.095.02-.024.04-.047.057-.07l.11-.127c.624-1.215 1.452-2.446 2.504-3.73.184-.299.375-.597.602-.855.356-.366.913-.759 1.311-1.082-.352-.176.45-1.094-.035-1.163.265-.215.66-.539.596-.62-.191-.243-.277-.633.231-1.33.223-.255.715-.531.75-.65.056-.187-.507.168-.449-.018-1.94 1.633-3.879 3.286-5.838 5.198-.19.274-.91 1.037-1.696 2.04a22.41 22.41 0 00-.883 1.212l-.054.094a4.832 4.832 0 00-.11.23c-.006.013-.013.025-.018.038-.009.002-.021-.017-.03-.024a.504.504 0 01-.117-.17l-.012-.008a.36.36 0 00-.046-.067l-.038-.039-.046-.05-.117-.132a6.51 6.51 0 00-.997-.925 12.034 12.034 0 00-1.011-.571c.073.146.133.286.177.41-.25-.25-.514-.492-.671-.54-.71-.392-.514.005-.5.34.065.199-.271.125-.13.399-.162-.15-.246-.224-.415-.371-.098.045.568.413.312.416-.128-.165-.362-.28-.53-.423-.044.134.546.524.406.589-.109-.059-.32-.52-.489-.435-.033.017.133.158.214.23-.279-.2-.528-.326-.66-.34-.134-.014-.15.081.013.328-.157-.133-.34-.361-.54-.477v.003c.086.07.214.207.293.27a10.767 10.767 0 00-.298-.231.72.72 0 000 .087c.062.068.123.137.198.197l-.194-.153c.009.074.026.153.049.232.15.25.235.527.349.627a15.163 15.163 0 011.503 1.673l.319.42.576.755c.203.26.408.512.62.746z" fill="#277EB5"/></svg>